# xmcd
#
# Track frame offsets:
# 150
# 21055
# 47148
# 60165
# 79499
# 101956
# 122679
# 162669
# 198112
# 219016
# 237679
# 
#
# Disc length: 3410 seconds
#
# Revision: 4
# Processed by: cddbd v1.5.1PL2 Copyright (c) Steve Scherf et al.
# Submitted via: Audio-CD-Archiv 4.00.530
#
DISCID=940d500b
DTITLE=Abi Wallenstein - Abi Wallenstein and Friends For Hinz and Kunzt
DYEAR=1999
DGENRE=blues
TTITLE0=Route 66
TTITLE1=Walkin' the Dog
TTITLE2=Keep Your Hands off Her
TTITLE3=The Hunter
TTITLE4=Rockin' Shoes
TTITLE5=Shake Your Boogie
TTITLE6=Shake Your Hips
TTITLE7=Sugar Mama
TTITLE8=Evil
TTITLE9=Kansas City
TTITLE10=Susie Q
EXTD=
EXTT0=
EXTT1=
EXTT2=
EXTT3=
EXTT4=
EXTT5=
EXTT6=
EXTT7=
EXTT8=
EXTT9=
EXTT10=
PLAYORDER=
